<svg width="94" height="74" viewBox="0 0 94 74" fill="none" xmlns="http://www.w3.org/2000/svg">
<path d="M34.553 73.8234H34.1687C15.191 73.8234 0.836914 57.9082 0.836914 36.9136C0.836914 15.9189 15.1662 0.0435216 34.1687 0.0169964C39.61 -0.15045 45.0224 0.920949 50.0475 3.16023C57.3609 6.47588 66.4469 13.8764 68.8268 30.4547H89.1804C89.7781 30.4388 90.3728 30.5502 90.9299 30.7824C91.487 31.0146 91.9954 31.3629 92.4256 31.8072C92.8558 32.2514 93.1992 32.7827 93.4358 33.3702C93.6725 33.9576 93.7976 34.5895 93.804 35.2292V39.9109C93.7911 40.5467 93.6613 41.1735 93.4219 41.7555C93.1826 42.3376 92.8384 42.8635 92.409 43.3032C91.9796 43.7429 91.4735 44.0877 90.9195 44.3181C90.3656 44.5484 89.7746 44.6597 89.1804 44.6456H69.3474C65.8147 60.017 56.6172 67.1921 49.4897 70.4016C44.7605 72.5516 39.6903 73.7131 34.553 73.8234ZM35.2595 3.43875C34.6769 3.43875 34.3422 3.43875 34.3298 3.43875H34.2183C17.0256 3.45201 4.04738 17.8419 4.04738 36.9136C4.04738 55.9852 17.0256 70.3618 34.2183 70.3618C39.0746 70.3192 43.8742 69.2416 48.3369 67.1921C57.9931 62.7358 64.0545 54.46 66.5336 42.6032L66.8063 41.2769H89.1804C89.5249 41.2914 89.8608 41.1605 90.1159 40.9124C90.371 40.6643 90.5247 40.3189 90.5439 39.9507V35.2292C90.536 35.0463 90.4944 34.8668 90.4215 34.7011C90.3487 34.5353 90.246 34.3866 90.1193 34.2634C89.9927 34.1402 89.8445 34.045 89.6834 33.9831C89.5223 33.9213 89.3514 33.894 89.1804 33.9029H66.0006L65.8271 32.391C64.352 19.5926 58.6624 10.8525 48.8947 6.39631C44.5724 4.4705 39.9415 3.46153 35.2595 3.42548V3.43875Z" fill="#835836"/>
<path d="M34.7141 27.2053C32.3465 29.0223 32.5697 28.7173 32.235 29.0488C25.5042 35.3618 23.7068 41.4626 23.6324 41.7146V41.8075C22.797 44.7793 22.4818 47.8908 22.7028 50.9852C19.1869 49.0713 16.4707 45.8149 15.0919 41.8605C15.0919 41.7809 12.4392 34.1019 15.0919 27.2716C15.3026 26.7279 18.3891 17.7358 25.2935 16.6616C27.4751 16.2902 33.363 17.4441 36.6478 25.7597C36.7842 25.9719 34.7141 27.2053 34.7141 27.2053Z" fill="#B68B6A"/>
<path d="M60.3358 38.757C59.3149 42.4198 57.5402 45.7914 55.1421 48.6244C54.8304 48.9876 54.6502 49.4579 54.6339 49.9507C53.8778 50.0349 53.1767 50.4123 52.663 51.0117C48.9388 54.5378 44.2997 56.7675 39.3625 57.4043C39.3625 57.4043 32.7184 58.0541 29.446 54.4202C27.2024 51.9135 26.8553 47.7889 28.38 42.1921C30.2243 37.8506 33.0484 34.0679 36.5983 31.1841L36.7098 31.078C39.1627 29.0625 41.977 27.6089 44.9777 26.8074C46.0313 26.4759 55.39 23.8101 59.4186 31.0515C60.0555 32.2006 60.4656 33.4773 60.6233 34.8026C60.7811 36.1279 60.6833 37.4738 60.3358 38.757Z" fill="#B68B6A"/>
<path d="M35.5446 55.3751C35.2116 55.3707 34.8879 55.2561 34.6183 55.0469C34.3486 54.8377 34.1462 54.5442 34.0388 54.2068C33.9315 53.8695 33.9245 53.5048 34.0187 53.163C34.113 52.8212 34.304 52.5191 34.5654 52.2982C37.9371 49.6657 40.3371 45.8492 41.3458 41.5157C42.5419 36.1853 45.5515 31.523 49.7872 28.4388C49.9589 28.3073 50.1532 28.2132 50.3589 28.1621C50.5646 28.1109 50.7776 28.1036 50.986 28.1405C51.1943 28.1775 51.3938 28.258 51.5731 28.3774C51.7524 28.4968 51.9079 28.6529 52.0308 28.8366C52.1537 29.0204 52.2415 29.2282 52.2894 29.4483C52.3372 29.6684 52.344 29.8964 52.3095 30.1193C52.275 30.3422 52.1997 30.5557 52.0881 30.7475C51.9765 30.9393 51.8306 31.1057 51.6589 31.2372C48.091 33.8231 45.5434 37.7299 44.5066 42.2053C43.359 47.3474 40.5379 51.8843 36.5487 55.0037C36.2638 55.2473 35.9092 55.3784 35.5446 55.3751Z" fill="#835836"/>
<path d="M60.2119 29.4334C56.0594 21.3963 47.2089 21.8472 42.6473 23.4255C41.6805 23.7438 40.8004 24.1019 39.9947 24.46C40.0348 24.1299 39.9876 23.7945 39.8583 23.4918C34.6397 11.6616 25.0579 12.5767 24.6489 12.6165H24.5621C15.786 14.0621 12.1665 23.2265 11.9558 23.5448C11.7914 23.9634 11.7892 24.4347 11.9496 24.8551C12.11 25.2754 12.4199 25.6104 12.8111 25.7862C13.2023 25.9621 13.6428 25.9645 14.0356 25.7929C14.4285 25.6213 14.7416 25.2897 14.9059 24.8711C14.9059 24.8711 18.0668 17.1921 24.996 16.0117C25.6529 16.0117 32.8424 15.6138 36.9453 24.9374C37.0823 25.235 37.2922 25.4871 37.5527 25.6669C36.1355 26.4342 34.8186 27.3974 33.6357 28.5316C29.8413 31.8881 26.9031 36.2181 25.0951 41.1178V41.1974C23.3597 48.0276 23.8556 53.2796 26.7437 56.7942C29.8922 60.773 34.9372 61.2637 37.4907 61.2637C38.0247 61.2698 38.5586 61.2432 39.0898 61.1841C43.2761 60.6673 47.2589 58.9691 50.6301 56.2637C50.958 55.9878 51.1731 55.5866 51.2303 55.1445C51.2874 54.7024 51.1821 54.2538 50.9365 53.8931C50.6908 53.5324 50.324 53.2876 49.9132 53.2103C49.5023 53.133 49.0795 53.2291 48.7336 53.4785C45.8196 55.8336 42.3703 57.3125 38.7427 57.7624C38.7427 57.7624 32.359 58.5051 29.1733 54.5528C27.0908 51.9003 26.7561 47.7889 28.1816 42.139C29.8441 37.8472 32.461 34.0548 35.8049 31.0913L35.8793 31.0117C38.1432 28.9917 40.7847 27.513 43.6266 26.6748C44.0356 26.5422 53.5431 23.4653 57.4229 31.1045C58.6637 33.5363 58.9832 36.3853 58.3154 39.0621C57.3785 42.6818 55.7304 46.0459 53.4811 48.9295C53.2609 49.2854 53.172 49.716 53.2315 50.1381C53.291 50.5601 53.4947 50.9435 53.8031 51.2142C54.1116 51.4848 54.5029 51.6234 54.9014 51.6031C55.2998 51.5829 55.6771 51.4052 55.9602 51.1045C58.4982 47.8403 60.3536 44.0326 61.4019 39.9374C62.2882 36.4031 61.8618 32.6388 60.2119 29.4334Z" fill="#835836"/>
<path d="M25.1819 34.0356C24.8673 34.0341 24.5599 33.934 24.2978 33.7479C24.0357 33.5617 23.8302 33.2975 23.7068 32.9878C22.0626 28.9512 21.5709 24.4845 22.2937 20.1496C22.3677 19.7011 22.6051 19.3025 22.9538 19.0413C23.3025 18.7802 23.7339 18.6779 24.1531 18.757C24.5722 18.8362 24.9448 19.0902 25.1889 19.4633C25.433 19.8364 25.5286 20.298 25.4546 20.7464C24.863 24.4275 25.294 28.2135 26.6942 31.635C26.778 31.8422 26.8226 32.065 26.8256 32.2907C26.8285 32.5164 26.7897 32.7405 26.7114 32.9501C26.633 33.1597 26.5167 33.3506 26.3691 33.5118C26.2215 33.6731 26.0455 33.8015 25.8513 33.8897C25.6426 33.9961 25.4128 34.0462 25.1819 34.0356Z" fill="#835836"/>
<path d="M19.1225 55.6034C18.9649 55.608 18.8078 55.5815 18.6596 55.5252C16.533 54.6161 14.6111 53.252 13.0168 51.5203C11.4225 49.7885 10.191 47.7273 9.40097 45.4684C8.09762 41.7285 7.71751 37.7043 8.29591 33.7694C8.36867 33.3793 8.58052 33.0328 8.88841 32.8004C9.1963 32.568 9.57713 32.4671 9.9535 32.5182C10.3262 32.5979 10.6557 32.8235 10.875 33.149C11.0942 33.4746 11.1866 33.8754 11.1332 34.2699C10.6557 37.6637 10.984 41.1285 12.0889 44.3579C12.7249 46.2036 13.7157 47.8929 15 49.3214C16.2843 50.7499 17.8348 51.8872 19.5555 52.663C19.8376 52.8139 20.0665 53.0548 20.2093 53.3509C20.352 53.647 20.4012 53.983 20.3497 54.3103C20.2982 54.6376 20.1486 54.9393 19.9226 55.1717C19.6967 55.4041 19.406 55.5553 19.0926 55.6034H19.1225Z" fill="#835836"/>
<path d="M34.553 73.8234H34.1687C15.191 73.8234 0.836914 57.9082 0.836914 36.9136C0.836914 15.9189 15.1662 0.0435216 34.1687 0.0169964C39.61 -0.15045 45.0224 0.920949 50.0475 3.16023C57.3609 6.47588 66.4469 13.8764 68.8268 30.4547H89.1804C89.7781 30.4388 90.3728 30.5502 90.9299 30.7824C91.487 31.0146 91.9954 31.3629 92.4256 31.8072C92.8558 32.2514 93.1992 32.7827 93.4358 33.3702C93.6725 33.9576 93.7976 34.5895 93.804 35.2292V39.9109C93.7911 40.5467 93.6613 41.1735 93.4219 41.7555C93.1826 42.3376 92.8384 42.8635 92.409 43.3032C91.9796 43.7429 91.4735 44.0877 90.9195 44.3181C90.3656 44.5484 89.7746 44.6597 89.1804 44.6456H69.3474C65.8147 60.017 56.6172 67.1921 49.4897 70.4016C44.7605 72.5516 39.6903 73.7131 34.553 73.8234ZM35.2595 3.43875C34.6769 3.43875 34.3422 3.43875 34.3298 3.43875H34.2183C17.0256 3.45201 4.04738 17.8419 4.04738 36.9136C4.04738 55.9852 17.0256 70.3618 34.2183 70.3618C39.0746 70.3192 43.8742 69.2416 48.3369 67.1921C57.9931 62.7358 64.0545 54.46 66.5336 42.6032L66.8063 41.2769H89.1804C89.5249 41.2914 89.8608 41.1605 90.1159 40.9124C90.371 40.6643 90.5247 40.3189 90.5439 39.9507V35.2292C90.536 35.0463 90.4944 34.8668 90.4215 34.7011C90.3487 34.5353 90.246 34.3866 90.1193 34.2634C89.9927 34.1402 89.8445 34.045 89.6834 33.9831C89.5223 33.9213 89.3514 33.894 89.1804 33.9029H66.0006L65.8271 32.391C64.352 19.5926 58.6624 10.8525 48.8947 6.39631C44.5724 4.4705 39.9415 3.46153 35.2595 3.42548V3.43875Z" fill="#835836"/>
<path d="M34.7141 27.2053C32.3465 29.0223 32.5697 28.7173 32.235 29.0488C25.5042 35.3618 23.7068 41.4626 23.6324 41.7146V41.8075C22.797 44.7793 22.4818 47.8908 22.7028 50.9852C19.1869 49.0713 16.4707 45.8149 15.0919 41.8605C15.0919 41.7809 12.4392 34.1019 15.0919 27.2716C15.3026 26.7279 18.3891 17.7358 25.2935 16.6616C27.4751 16.2902 33.363 17.4441 36.6478 25.7597C36.7842 25.9719 34.7141 27.2053 34.7141 27.2053Z" fill="#B68B6A"/>
<path d="M60.3358 38.757C59.3149 42.4198 57.5402 45.7914 55.1421 48.6244C54.8304 48.9876 54.6502 49.4579 54.6339 49.9507C53.8778 50.0349 53.1767 50.4123 52.663 51.0117C48.9388 54.5378 44.2997 56.7675 39.3625 57.4043C39.3625 57.4043 32.7184 58.0541 29.446 54.4202C27.2024 51.9135 26.8553 47.7889 28.38 42.1921C30.2243 37.8506 33.0484 34.0679 36.5983 31.1841L36.7098 31.078C39.1627 29.0625 41.977 27.6089 44.9777 26.8074C46.0313 26.4759 55.39 23.8101 59.4186 31.0515C60.0555 32.2006 60.4656 33.4773 60.6233 34.8026C60.7811 36.1279 60.6833 37.4738 60.3358 38.757Z" fill="#B68B6A"/>
<path d="M35.5446 55.3751C35.2116 55.3707 34.8879 55.2561 34.6183 55.0469C34.3486 54.8377 34.1462 54.5442 34.0388 54.2068C33.9315 53.8695 33.9245 53.5048 34.0187 53.163C34.113 52.8212 34.304 52.5191 34.5654 52.2982C37.9371 49.6657 40.3371 45.8492 41.3458 41.5157C42.5419 36.1853 45.5515 31.523 49.7872 28.4388C49.9589 28.3073 50.1532 28.2132 50.3589 28.1621C50.5646 28.1109 50.7776 28.1036 50.986 28.1405C51.1943 28.1775 51.3938 28.258 51.5731 28.3774C51.7524 28.4968 51.9079 28.6529 52.0308 28.8366C52.1537 29.0204 52.2415 29.2282 52.2894 29.4483C52.3372 29.6684 52.344 29.8964 52.3095 30.1193C52.275 30.3422 52.1997 30.5557 52.0881 30.7475C51.9765 30.9393 51.8306 31.1057 51.6589 31.2372C48.091 33.8231 45.5434 37.7299 44.5066 42.2053C43.359 47.3474 40.5379 51.8843 36.5487 55.0037C36.2638 55.2473 35.9092 55.3784 35.5446 55.3751Z" fill="#835836"/>
<path d="M60.2119 29.4334C56.0594 21.3963 47.2089 21.8472 42.6473 23.4255C41.6805 23.7438 40.8004 24.1019 39.9947 24.46C40.0348 24.1299 39.9876 23.7945 39.8583 23.4918C34.6397 11.6616 25.0579 12.5767 24.6489 12.6165H24.5621C15.786 14.0621 12.1665 23.2265 11.9558 23.5448C11.7914 23.9634 11.7892 24.4347 11.9496 24.8551C12.11 25.2754 12.4199 25.6104 12.8111 25.7862C13.2023 25.9621 13.6428 25.9645 14.0356 25.7929C14.4285 25.6213 14.7416 25.2897 14.9059 24.8711C14.9059 24.8711 18.0668 17.1921 24.996 16.0117C25.6529 16.0117 32.8424 15.6138 36.9453 24.9374C37.0823 25.235 37.2922 25.4871 37.5527 25.6669C36.1355 26.4342 34.8186 27.3974 33.6357 28.5316C29.8413 31.8881 26.9031 36.2181 25.0951 41.1178V41.1974C23.3597 48.0276 23.8556 53.2796 26.7437 56.7942C29.8922 60.773 34.9372 61.2637 37.4907 61.2637C38.0247 61.2698 38.5586 61.2432 39.0898 61.1841C43.2761 60.6673 47.2589 58.9691 50.6301 56.2637C50.958 55.9878 51.1731 55.5866 51.2303 55.1445C51.2874 54.7024 51.1821 54.2538 50.9365 53.8931C50.6908 53.5324 50.324 53.2876 49.9132 53.2103C49.5023 53.133 49.0795 53.2291 48.7336 53.4785C45.8196 55.8336 42.3703 57.3125 38.7427 57.7624C38.7427 57.7624 32.359 58.5051 29.1733 54.5528C27.0908 51.9003 26.7561 47.7889 28.1816 42.139C29.8441 37.8472 32.461 34.0548 35.8049 31.0913L35.8793 31.0117C38.1432 28.9917 40.7847 27.513 43.6266 26.6748C44.0356 26.5422 53.5431 23.4653 57.4229 31.1045C58.6637 33.5363 58.9832 36.3853 58.3154 39.0621C57.3785 42.6818 55.7304 46.0459 53.4811 48.9295C53.2609 49.2854 53.172 49.716 53.2315 50.1381C53.291 50.5601 53.4947 50.9435 53.8031 51.2142C54.1116 51.4848 54.5029 51.6234 54.9014 51.6031C55.2998 51.5829 55.6771 51.4052 55.9602 51.1045C58.4982 47.8403 60.3536 44.0326 61.4019 39.9374C62.2882 36.4031 61.8618 32.6388 60.2119 29.4334Z" fill="#835836"/>
<path d="M25.1819 34.0356C24.8673 34.0341 24.5599 33.934 24.2978 33.7479C24.0357 33.5617 23.8302 33.2975 23.7068 32.9878C22.0626 28.9512 21.5709 24.4845 22.2937 20.1496C22.3677 19.7011 22.6051 19.3025 22.9538 19.0413C23.3025 18.7802 23.7339 18.6779 24.1531 18.757C24.5722 18.8362 24.9448 19.0902 25.1889 19.4633C25.433 19.8364 25.5286 20.298 25.4546 20.7464C24.863 24.4275 25.294 28.2135 26.6942 31.635C26.778 31.8422 26.8226 32.065 26.8256 32.2907C26.8285 32.5164 26.7897 32.7405 26.7114 32.9501C26.633 33.1597 26.5167 33.3506 26.3691 33.5118C26.2215 33.6731 26.0455 33.8015 25.8513 33.8897C25.6426 33.9961 25.4128 34.0462 25.1819 34.0356Z" fill="#835836"/>
<path d="M19.1225 55.6034C18.9649 55.608 18.8078 55.5815 18.6596 55.5252C16.533 54.6161 14.6111 53.252 13.0168 51.5203C11.4225 49.7885 10.191 47.7273 9.40097 45.4684C8.09762 41.7285 7.71751 37.7043 8.29591 33.7694C8.36867 33.3793 8.58052 33.0328 8.88841 32.8004C9.1963 32.568 9.57713 32.4671 9.9535 32.5182C10.3262 32.5979 10.6557 32.8235 10.875 33.149C11.0942 33.4746 11.1866 33.8754 11.1332 34.2699C10.6557 37.6637 10.984 41.1285 12.0889 44.3579C12.7249 46.2036 13.7157 47.8929 15 49.3214C16.2843 50.7499 17.8348 51.8872 19.5555 52.663C19.8376 52.8139 20.0665 53.0548 20.2093 53.3509C20.352 53.647 20.4012 53.983 20.3497 54.3103C20.2982 54.6376 20.1486 54.9393 19.9226 55.1717C19.6967 55.4041 19.406 55.5553 19.0926 55.6034H19.1225Z" fill="#835836"/>
</svg>
