<svg width="181" height="42" viewBox="0 0 181 42" fill="none" xmlns="http://www.w3.org/2000/svg">
<path d="M129.101 41.5599H128.871C117.441 41.5599 108.801 32.6399 108.801 20.7999C108.801 8.95992 117.421 0.00991762 128.871 0.00991762C132.148 -0.0861966 135.407 0.517213 138.431 1.77992C142.831 3.63992 148.301 7.77992 149.741 17.1299H162.011C162.732 17.1246 163.425 17.4044 163.941 17.9083C164.456 18.4122 164.751 19.0994 164.761 19.8199V22.4599C164.759 22.8184 164.685 23.1729 164.546 23.5031C164.406 23.8334 164.203 24.1328 163.948 24.3845C163.692 24.6361 163.39 24.835 163.058 24.9698C162.725 25.1045 162.37 25.1726 162.011 25.1699H150.011C149.333 28.3651 147.894 31.3492 145.815 33.8686C143.736 36.3879 141.08 38.3678 138.071 39.6399C135.23 40.8431 132.186 41.4947 129.101 41.5599ZM129.531 1.94992H128.901C118.541 1.94992 110.731 10.0499 110.731 20.7799C110.731 31.5099 118.541 39.6099 128.901 39.6099C131.825 39.5762 134.713 38.968 137.401 37.8199C143.211 35.3099 146.891 30.6599 148.331 23.9799L148.491 23.2199H162.011C162.114 23.2239 162.216 23.2077 162.312 23.1722C162.408 23.1367 162.497 23.0825 162.572 23.0128C162.647 22.9432 162.708 22.8594 162.751 22.7662C162.793 22.6731 162.817 22.5724 162.821 22.4699V19.8399C162.817 19.7375 162.793 19.6368 162.751 19.5436C162.708 19.4505 162.647 19.3666 162.572 19.297C162.497 19.2273 162.408 19.1732 162.312 19.1377C162.216 19.1021 162.114 19.0859 162.011 19.0899H148.011L147.901 18.2399C147.011 11.0099 143.621 6.11992 137.741 3.60992C135.138 2.53036 132.35 1.9666 129.531 1.94992Z" fill="#835836"/>
<path d="M129.201 15.3299C127.771 16.3299 127.911 16.1799 127.691 16.3299C125.388 18.2264 123.608 20.6809 122.521 23.4599V23.5099C122.016 25.1803 121.826 26.9301 121.961 28.6699C119.858 27.5841 118.233 25.7559 117.401 23.5399C117.401 23.5399 115.801 19.1699 117.401 15.3099C117.531 15.0099 119.401 9.94992 123.541 9.30992C124.861 9.09992 128.401 9.74992 130.381 14.4299C130.431 14.6399 129.201 15.3299 129.201 15.3299Z" fill="#B68B6A"/>
<path d="M144.631 21.8299C144.012 23.8858 142.942 25.7782 141.501 27.3699C141.322 27.5693 141.213 27.8224 141.191 28.0899C140.738 28.148 140.318 28.3598 140.001 28.6899C137.763 30.6742 134.972 31.9268 132.001 32.2799C132.001 32.2799 128.001 32.6399 126.001 30.5899C124.651 29.1899 124.441 26.8699 125.361 23.7099C126.477 21.2707 128.177 19.1446 130.311 17.5199L130.381 17.4599C131.864 16.3235 133.567 15.5063 135.381 15.0599C136.011 14.8699 141.641 13.3699 144.071 17.4499C144.463 18.1012 144.716 18.827 144.812 19.581C144.908 20.3351 144.847 21.1009 144.631 21.8299Z" fill="#B68B6A"/>
<path d="M129.731 31.1799C129.584 31.1789 129.438 31.1453 129.305 31.0813C129.172 31.0173 129.054 30.9246 128.961 30.8099C128.811 30.6042 128.745 30.3489 128.777 30.0962C128.808 29.8435 128.935 29.6123 129.131 29.4499C131.166 27.9709 132.615 25.8215 133.221 23.3799C133.944 20.3792 135.754 17.7532 138.301 16.0099C138.508 15.9309 138.736 15.923 138.948 15.9874C139.16 16.0519 139.345 16.185 139.473 16.366C139.602 16.5469 139.666 16.7653 139.657 16.9869C139.647 17.2084 139.564 17.4206 139.421 17.5899C137.274 19.0461 135.74 21.2429 135.111 23.7599C134.428 26.6695 132.73 29.2401 130.321 31.0099C130.147 31.1271 129.941 31.1865 129.731 31.1799Z" fill="#835836"/>
<path d="M121.721 31.0099C121.616 31.0129 121.511 30.9959 121.411 30.9599C119.987 30.3787 118.7 29.5065 117.633 28.3993C116.565 27.2921 115.74 25.9742 115.211 24.5299C114.338 22.1387 114.084 19.5658 114.471 17.0499C114.52 16.8005 114.662 16.579 114.868 16.4304C115.074 16.2818 115.329 16.2173 115.581 16.2499C115.831 16.3009 116.052 16.4452 116.198 16.6533C116.345 16.8614 116.407 17.1177 116.371 17.3699C116.052 19.5399 116.271 21.7551 117.011 23.8199C117.437 25 118.101 26.0801 118.961 26.9934C119.821 27.9068 120.859 28.6339 122.011 29.1299C122.2 29.2264 122.353 29.3804 122.449 29.5698C122.545 29.7591 122.578 29.9739 122.543 30.1832C122.509 30.3924 122.408 30.5853 122.257 30.7339C122.106 30.8825 121.911 30.9792 121.701 31.0099H121.721Z" fill="#835836"/>
<path d="M144.551 16.5799C142.051 12.0599 136.721 12.3099 133.971 13.1799C133.391 13.3599 132.861 13.5599 132.381 13.7599C132.406 13.575 132.375 13.3868 132.291 13.2199C129.151 6.55992 123.381 7.06992 123.131 7.09992H123.081C117.801 7.91992 115.581 13.0399 115.491 13.2499C115.458 13.4688 115.499 13.6924 115.607 13.8857C115.715 14.0789 115.884 14.2309 116.088 14.3178C116.291 14.4048 116.518 14.4217 116.732 14.366C116.946 14.3102 117.136 14.185 117.271 14.0099C117.271 14.0099 119.171 9.67992 123.351 9.00992C123.741 9.00992 128.071 8.78992 130.541 14.0099C130.62 14.1809 130.749 14.3239 130.911 14.4199C130.056 14.8521 129.262 15.3969 128.551 16.0399C126.263 17.9261 124.491 20.3621 123.401 23.1199C122.401 26.9699 122.691 29.9199 124.401 31.9099C126.301 34.1099 129.331 34.4199 130.881 34.4199C131.214 34.4429 131.548 34.4429 131.881 34.4199C134.404 34.134 136.804 33.1775 138.831 31.6499C138.972 31.5926 139.099 31.5038 139.2 31.3903C139.302 31.2767 139.376 31.1415 139.417 30.9949C139.459 30.8482 139.466 30.6941 139.439 30.5442C139.412 30.3943 139.35 30.2527 139.26 30.13C139.17 30.0074 139.052 29.907 138.917 29.8366C138.782 29.7662 138.633 29.7276 138.48 29.7237C138.328 29.7199 138.177 29.7508 138.038 29.8143C137.9 29.8778 137.778 29.972 137.681 30.0899C135.934 31.417 133.861 32.2494 131.681 32.4999C131.681 32.4999 127.841 32.9199 125.931 30.6899C124.671 29.2299 124.471 26.8799 125.331 23.6899C126.321 21.2677 127.899 19.1301 129.921 17.4699V17.4199C131.277 16.2985 132.855 15.4771 134.551 15.0099C134.791 14.9399 140.481 13.2099 142.851 17.5099C143.613 18.8816 143.807 20.497 143.391 22.0099C142.825 24.0451 141.833 25.9368 140.481 27.5599C140.39 27.761 140.369 27.9866 140.419 28.2013C140.47 28.4161 140.59 28.6081 140.762 28.7473C140.933 28.8866 141.145 28.9653 141.366 28.9712C141.587 28.9771 141.803 28.9098 141.981 28.7799C143.512 26.9456 144.63 24.804 145.261 22.4999C145.796 20.5088 145.542 18.388 144.551 16.5799Z" fill="#835836"/>
<path d="M123.461 19.1899C123.273 19.1866 123.09 19.1304 122.933 19.0279C122.775 18.9253 122.65 18.7804 122.571 18.6099C121.584 16.3358 121.285 13.8222 121.711 11.3799C121.803 11.1765 121.959 11.0094 122.156 10.9052C122.353 10.801 122.579 10.7656 122.799 10.8047C123.018 10.8438 123.219 10.955 123.368 11.1209C123.517 11.2867 123.606 11.4975 123.621 11.7199C123.252 13.7872 123.507 15.9174 124.351 17.8399C124.447 18.078 124.447 18.3436 124.352 18.5818C124.257 18.82 124.074 19.0126 123.841 19.1199C123.72 19.1663 123.591 19.1901 123.461 19.1899Z" fill="#835836"/>
<path d="M6.06127 34.3699C4.9559 34.3965 3.85773 34.1851 2.84127 33.7499C1.92563 33.3183 1.18729 32.5835 0.751269 31.6699C0.194989 30.3952 -0.0583041 29.009 0.011269 27.6199V26.3499H2.67127V27.7799C2.62742 28.7979 2.77323 29.8152 3.10127 30.7799C3.31637 31.4033 3.7403 31.9332 4.30127 32.2799C4.84185 32.5705 5.44759 32.7185 6.06127 32.7099C7.03903 32.7397 7.98861 32.38 8.70127 31.7099C9.08734 31.2431 9.37496 30.703 9.54681 30.1222C9.71867 29.5413 9.77121 28.9316 9.70127 28.3299C9.7565 27.4285 9.57373 26.5284 9.17127 25.7199C8.76812 25.0997 8.19057 24.6127 7.51127 24.3199C6.76127 23.9699 5.85127 23.5899 4.77127 23.1699C3.94334 22.8736 3.15163 22.4844 2.41127 22.0099C1.71268 21.5325 1.15082 20.8811 0.781269 20.1199C0.36252 19.1946 0.163989 18.1849 0.201269 17.1699C0.171559 16.0283 0.37222 14.8923 0.791269 13.8299C1.16628 12.9516 1.84901 12.2405 2.71127 11.8299C3.82237 11.3449 5.03029 11.1225 6.24127 11.1799C7.83106 11.079 9.40392 11.5548 10.6713 12.5199C11.197 12.9947 11.6086 13.5823 11.8753 14.2386C12.1419 14.8949 12.2568 15.603 12.2113 16.3099V18.8299H9.63127V16.8799C9.70582 15.8734 9.40279 14.8752 8.78127 14.0799C8.46114 13.7403 8.07058 13.4748 7.63699 13.302C7.20339 13.1293 6.73726 13.0535 6.27127 13.0799C5.78435 13.0374 5.2941 13.1052 4.83702 13.2783C4.37994 13.4514 3.96779 13.7254 3.63127 14.0799C3.0232 14.9569 2.73381 16.0156 2.81127 17.0799C2.76286 17.9187 2.97979 18.7514 3.43127 19.4599C3.82935 20.0492 4.37384 20.5247 5.01127 20.8399C5.69898 21.177 6.40701 21.4709 7.13127 21.7199C8.17728 22.0725 9.18291 22.5351 10.1313 23.0999C10.8639 23.536 11.4544 24.1751 11.8313 24.9399C12.2375 25.9346 12.4185 27.007 12.3613 28.0799C12.4228 29.3739 12.1398 30.661 11.5413 31.8099C11.0344 32.7081 10.2427 33.4118 9.29127 33.8099C8.26121 34.2046 7.16409 34.3949 6.06127 34.3699Z" fill="#835836"/>
<path d="M20.7713 34.1299L20.8313 11.2599H23.4413L23.3813 34.1399L20.7713 34.1299Z" fill="#835836"/>
<path d="M32.7313 34.1599L32.7913 11.2799H35.8713L41.1313 29.9099L46.6313 11.2999H49.6313L49.5713 34.1699H47.1913V15.6699L42.0813 34.1799H40.2113L35.1513 15.6599V34.1599H32.7313Z" fill="#835836"/>
<path d="M58.9113 34.2099L59.0113 11.3399H66.6113C67.8115 11.2837 68.9995 11.6017 70.0113 12.2499C70.4522 12.5835 70.801 13.0238 71.0249 13.5294C71.2488 14.035 71.3405 14.5892 71.2913 15.1399V19.3599C71.2984 20.1983 71.1562 21.0314 70.8713 21.8199C70.585 22.5897 70.0408 23.2364 69.3313 23.6499C68.3331 24.1676 67.2137 24.406 66.0913 24.3399H61.6313V34.2099H58.9113ZM61.6413 22.9199H65.2513C65.719 22.9485 66.1872 22.8738 66.6228 22.7009C67.0583 22.5281 67.4504 22.2615 67.7713 21.9199C68.4044 21.084 68.7102 20.0455 68.6313 18.9999V15.9999C68.6739 15.5538 68.6268 15.1037 68.4928 14.6761C68.3589 14.2485 68.1407 13.852 67.8512 13.5099C67.6054 13.2519 67.3088 13.0476 66.98 12.9099C66.6513 12.7722 66.2976 12.7041 65.9413 12.7099H61.6613L61.6413 22.9199Z" fill="#835836"/>
<path d="M79.1413 34.2599L79.2013 11.3799H81.8213L81.7613 34.2499L79.1413 34.2599Z" fill="#835836"/>
<path d="M93.7213 34.2899V24.2899L89.1713 11.4099H91.8713L95.0113 20.8199L95.1813 21.5999L95.3513 20.8199L98.7813 11.4299H101.271L96.3713 24.4299V34.3399L93.7213 34.2899Z" fill="#835836"/>
<path d="M173.821 34.9299C173.014 34.9325 172.207 34.8656 171.411 34.7299C170.702 34.6184 170.022 34.3668 169.411 33.9899C168.818 33.6 168.357 33.0384 168.091 32.3799C167.735 31.4739 167.575 30.5025 167.621 29.5299V11.5799H170.241L170.261 30.0099C170.208 30.7402 170.379 31.4693 170.751 32.0999C171.059 32.5751 171.522 32.9286 172.061 33.0999C173.207 33.4397 174.426 33.4397 175.571 33.0999C176.11 32.9504 176.58 32.6181 176.901 32.1599C177.284 31.533 177.462 30.8026 177.411 30.0699V11.6099H180.011L179.961 29.6099C180 30.5796 179.836 31.5468 179.481 32.4499C179.206 33.0809 178.759 33.6215 178.191 34.0099C177.581 34.3873 176.901 34.6357 176.191 34.7399C175.408 34.8694 174.615 34.9329 173.821 34.9299Z" fill="#835836"/>
</svg>
