<svg width="152" height="52" viewBox="0 0 152 52" fill="none" xmlns="http://www.w3.org/2000/svg">
<path d="M21.7154 50H21.4679C9.24502 50 0 39.6552 0 26.0086C0 12.3621 9.22906 2.04311 21.4679 2.02587C24.9725 1.91703 28.4584 2.61343 31.6949 4.06897C36.4053 6.22414 42.2573 11.0345 43.7901 21.8103H56.8992C57.2842 21.8 57.6672 21.8725 58.026 22.0234C58.3848 22.1743 58.7123 22.4007 58.9893 22.6895C59.2664 22.9782 59.4876 23.3236 59.64 23.7054C59.7924 24.0873 59.873 24.498 59.8771 24.9138V27.9569C59.8688 28.3701 59.7852 28.7776 59.631 29.1559C59.4769 29.5342 59.2552 29.8761 58.9786 30.1619C58.7021 30.4477 58.3761 30.6718 58.0193 30.8216C57.6625 30.9713 57.2819 31.0436 56.8992 31.0345H44.1254C41.8501 41.0259 35.9263 45.6897 31.3357 47.7759C28.2898 49.1734 25.0242 49.9283 21.7154 50ZM22.1705 4.25C21.7953 4.25 21.5797 4.25 21.5717 4.25H21.4999C10.4266 4.25862 2.06776 13.6121 2.06776 26.0086C2.06776 38.4052 10.4266 47.75 21.4999 47.75C24.6276 47.7223 27.7189 47.0219 30.5932 45.6897C36.8124 42.7931 40.7164 37.4138 42.3131 29.7069L42.4888 28.8448H56.8992C57.1211 28.8543 57.3374 28.7692 57.5017 28.6079C57.666 28.4466 57.765 28.2221 57.7774 27.9828V24.9138C57.7723 24.7949 57.7455 24.6782 57.6986 24.5705C57.6516 24.4628 57.5855 24.3661 57.5039 24.2861C57.4223 24.206 57.3269 24.1441 57.2232 24.1039C57.1194 24.0636 57.0093 24.0459 56.8992 24.0517H41.9698L41.8581 23.069C40.908 14.75 37.2436 9.06897 30.9525 6.17242C28.1686 4.92064 25.186 4.26481 22.1705 4.24138V4.25Z" fill="#835836"/>
<path d="M21.8192 19.6983C20.2943 20.8793 20.438 20.681 20.2225 20.8966C15.8874 25 14.7298 28.9655 14.6819 29.1293V29.1897C14.1438 31.1214 13.9408 33.1438 14.0831 35.1552C11.8186 33.9112 10.0692 31.7945 9.18116 29.2241C9.18116 29.1724 7.47266 24.181 9.18116 19.7414C9.31688 19.3879 11.3048 13.5431 15.7517 12.8448C17.1568 12.6035 20.949 13.3535 23.0647 18.7586C23.1525 18.8966 21.8192 19.6983 21.8192 19.6983Z" fill="#B68B6A"/>
<path d="M38.3213 27.2069C37.6638 29.5877 36.5207 31.7793 34.9762 33.6207C34.7755 33.8568 34.6594 34.1625 34.6489 34.4828C34.1619 34.5375 33.7104 34.7828 33.3795 35.1724C30.9809 37.4644 27.993 38.9137 24.8131 39.3276C24.8131 39.3276 20.5339 39.75 18.4262 37.3879C16.9811 35.7586 16.7576 33.0776 17.7396 29.4397C18.9274 26.6177 20.7464 24.1589 23.0327 22.2845L23.1046 22.2155C24.6844 20.9055 26.497 19.9606 28.4296 19.4397C29.1083 19.2241 35.1359 17.4914 37.7306 22.1983C38.1408 22.9452 38.4049 23.775 38.5065 24.6365C38.6081 25.498 38.5451 26.3728 38.3213 27.2069Z" fill="#B68B6A"/>
<path d="M22.3541 38.0086C22.1396 38.0058 21.9312 37.9313 21.7575 37.7953C21.5838 37.6593 21.4534 37.4685 21.3843 37.2493C21.3151 37.03 21.3106 36.793 21.3713 36.5708C21.4321 36.3486 21.5551 36.1522 21.7234 36.0086C23.8951 34.2976 25.4408 31.8168 26.0904 29C26.8608 25.5352 28.7992 22.5048 31.5273 20.5C31.6379 20.4145 31.763 20.3534 31.8955 20.3202C32.028 20.2869 32.1652 20.2821 32.2994 20.3062C32.4336 20.3302 32.5621 20.3825 32.6775 20.4601C32.793 20.5378 32.8932 20.6392 32.9723 20.7586C33.0515 20.8781 33.1081 21.0132 33.1389 21.1562C33.1697 21.2993 33.1741 21.4475 33.1518 21.5924C33.1296 21.7373 33.0811 21.876 33.0092 22.0007C32.9374 22.1253 32.8434 22.2335 32.7328 22.319C30.4348 23.9998 28.794 26.5392 28.1263 29.4483C27.3871 32.7906 25.5701 35.7396 23.0008 37.7673C22.8173 37.9256 22.589 38.0108 22.3541 38.0086Z" fill="#835836"/>
<path d="M38.2415 21.1466C35.567 15.9224 29.8667 16.2155 26.9287 17.2414C26.306 17.4483 25.7392 17.681 25.2202 17.9138C25.2461 17.6993 25.2157 17.4812 25.1324 17.2845C21.7713 9.59483 15.6 10.1897 15.3365 10.2155H15.2806C9.62824 11.1552 7.29703 17.1121 7.16131 17.319C7.05544 17.591 7.054 17.8974 7.15731 18.1706C7.26061 18.4438 7.46021 18.6615 7.71218 18.7759C7.96414 18.8902 8.24785 18.8917 8.50088 18.7802C8.75391 18.6686 8.95554 18.4531 9.06141 18.181C9.06141 18.181 11.0972 13.1897 15.5601 12.4224C15.9832 12.4224 20.6137 12.1638 23.2563 18.2241C23.3445 18.4175 23.4797 18.5814 23.6475 18.6983C22.7347 19.1971 21.8865 19.8231 21.1246 20.5603C18.6808 22.7421 16.7884 25.5566 15.6239 28.7414V28.7931C14.5062 33.2328 14.8256 36.6466 16.6858 38.931C18.7136 41.5172 21.9629 41.8362 23.6075 41.8362C23.9515 41.8402 24.2953 41.8229 24.6374 41.7845C27.3337 41.4485 29.8989 40.3448 32.0702 38.5862C32.2814 38.4069 32.4199 38.1461 32.4567 37.8588C32.4935 37.5714 32.4257 37.2798 32.2675 37.0453C32.1093 36.8109 31.873 36.6518 31.6084 36.6015C31.3438 36.5513 31.0715 36.6138 30.8487 36.7759C28.9719 38.3066 26.7503 39.268 24.4139 39.5604C24.4139 39.5604 20.3023 40.0431 18.2505 37.4741C16.9093 35.75 16.6937 33.0776 17.6119 29.4052C18.6826 26.6155 20.368 24.1504 22.5218 22.2241L22.5697 22.1724C24.0278 20.8594 25.7291 19.8983 27.5594 19.3535C27.8229 19.2672 33.9463 17.2672 36.4452 22.2328C37.2444 23.8134 37.4502 25.6653 37.02 27.4052C36.4166 29.758 35.3551 31.9446 33.9064 33.819C33.7646 34.0503 33.7074 34.3302 33.7457 34.6046C33.784 34.8789 33.9152 35.1281 34.1138 35.304C34.3125 35.4799 34.5645 35.57 34.8212 35.5569C35.0778 35.5437 35.3208 35.4282 35.5031 35.2328C37.1378 33.111 38.3328 30.636 39.0079 27.9741C39.5788 25.6768 39.3042 23.2301 38.2415 21.1466Z" fill="#835836"/>
<path d="M15.6798 24.1379C15.4772 24.137 15.2792 24.072 15.1104 23.9509C14.9416 23.8299 14.8093 23.6582 14.7298 23.4569C13.6708 20.8331 13.3541 17.9297 13.8196 15.1121C13.8673 14.8206 14.0202 14.5614 14.2448 14.3917C14.4694 14.2219 14.7472 14.1555 15.0172 14.2069C15.2871 14.2583 15.5271 14.4235 15.6843 14.666C15.8415 14.9085 15.9031 15.2085 15.8555 15.5C15.4744 17.8927 15.752 20.3536 16.6538 22.5776C16.7078 22.7122 16.7366 22.8571 16.7385 23.0038C16.7404 23.1505 16.7154 23.2962 16.6649 23.4324C16.6144 23.5686 16.5395 23.6927 16.4444 23.7975C16.3494 23.9023 16.236 23.9858 16.1109 24.0431C15.9766 24.1123 15.8285 24.1449 15.6798 24.1379Z" fill="#835836"/>
<path d="M75.98 21.8017C75.111 21.8185 74.2484 21.6364 73.4492 21.2672C72.7201 20.8922 72.1315 20.2596 71.7807 19.4741C71.3426 18.3885 71.1405 17.2089 71.1899 16.0259V14.8879H73.3055V16.1293C73.2705 17.0069 73.3869 17.8839 73.6488 18.7155C73.8227 19.2494 74.1609 19.7028 74.6069 20C75.0384 20.2505 75.522 20.3781 76.012 20.3707C76.7876 20.4053 77.5456 20.115 78.1276 19.5603C78.4357 19.1561 78.6652 18.689 78.8023 18.1869C78.9395 17.6848 78.9816 17.158 78.926 16.6379C78.9759 15.8604 78.8297 15.0828 78.5029 14.3879C78.181 13.8533 77.7199 13.4334 77.1776 13.181C76.5788 12.8793 75.8523 12.5517 74.9901 12.1897C74.3197 11.9231 73.6817 11.57 73.09 11.1379C72.521 10.7218 72.0639 10.1508 71.7647 9.48276C71.4304 8.68838 71.2745 7.82001 71.3096 6.94828C71.2812 5.96092 71.4416 4.97783 71.7807 4.06035C72.0769 3.3038 72.6193 2.6905 73.3055 2.33621C74.1964 1.9215 75.1626 1.72993 76.1317 1.77586C77.3985 1.68865 78.6518 2.09893 79.6605 2.93104C80.0778 3.34095 80.4054 3.84606 80.6195 4.4097C80.8335 4.97334 80.9286 5.58137 80.898 6.18966V8.40518H78.8302V6.73276C78.8932 5.86336 78.6542 4.99977 78.1596 4.31035C77.5898 3.77429 76.8595 3.479 76.1038 3.479C75.3481 3.479 74.6178 3.77429 74.048 4.31035C73.5631 5.06663 73.3322 5.97911 73.3934 6.89655C73.3589 7.62188 73.5317 8.34113 73.8884 8.9569C74.2187 9.45941 74.6644 9.86048 75.1817 10.1207C75.728 10.4113 76.2906 10.6646 76.8662 10.8793C77.7013 11.1833 78.5042 11.582 79.2613 12.069C79.8483 12.4422 80.3204 12.9939 80.6185 13.6552C80.9428 14.5127 81.0873 15.4371 81.0417 16.3621C81.0951 17.478 80.8689 18.5888 80.387 19.5776C79.9848 20.354 79.3519 20.9614 78.5907 21.3017C77.7607 21.6573 76.8726 21.8274 75.98 21.8017Z" fill="#835836"/>
<path d="M87.7239 21.5948L87.7719 1.87931H89.8636L89.8156 21.5948H87.7239Z" fill="#835836"/>
<path d="M97.2723 21.6207L97.3202 1.90517H99.7952L104.003 17.9655L108.386 1.93104H110.741L110.693 21.6552H108.817V5.7069L104.737 21.6379H103.244L99.2044 5.67242L99.1645 21.6207H97.2723Z" fill="#835836"/>
<path d="M118.157 21.6724L118.205 1.94828H124.273C125.235 1.89945 126.187 2.17677 126.995 2.74138C127.344 3.02982 127.621 3.40826 127.8 3.84203C127.978 4.2758 128.053 4.75102 128.017 5.22414V8.86207C128.023 9.58486 127.909 10.303 127.682 10.9828C127.453 11.6464 127.019 12.2039 126.452 12.5603C125.658 13.0146 124.762 13.2206 123.866 13.1552H120.345V21.6638L118.157 21.6724ZM120.337 11.931H123.219C123.589 11.9606 123.96 11.9034 124.307 11.7635C124.654 11.6237 124.97 11.4044 125.231 11.1207C125.736 10.3963 125.98 9.49879 125.918 8.59483V6.03448C125.996 5.26508 125.789 4.49342 125.343 3.88793C125.146 3.66549 124.91 3.48936 124.647 3.37066C124.385 3.25196 124.102 3.19327 123.818 3.19828H120.401L120.337 11.931Z" fill="#835836"/>
<path d="M134.324 21.7069L134.372 1.99138H136.464L136.416 21.7155L134.324 21.7069Z" fill="#835836"/>
<path d="M145.964 21.7328V13.1121L142.332 2.00862H144.503L147.002 10.1293L147.138 10.7931L147.274 10.1293L150.012 2.02586H152L148.096 13.2328V21.7759L145.964 21.7328Z" fill="#835836"/>
<path d="M74.024 49.3707V40.75L70.3915 29.6466H72.5471L75.0459 37.7586L75.1737 38.431L75.3094 37.7586L78.0478 29.6638H80.0437L76.1317 40.8707V49.4138L74.024 49.3707Z" fill="#835836"/>
<path d="M89.9115 49.8103C89.0601 49.817 88.2116 49.701 87.3886 49.4655C86.6696 49.2511 86.0495 48.7566 85.6482 48.0776C85.1617 47.1004 84.9403 45.9949 85.0095 44.8879V33.7845C84.9419 32.7988 85.1715 31.8159 85.6642 30.9828C86.1012 30.3548 86.7284 29.9124 87.4365 29.7328C88.2729 29.5154 89.1311 29.4111 89.9913 29.4224C90.8478 29.4097 91.7018 29.5228 92.5301 29.7586C93.2328 29.9559 93.8524 30.4059 94.2865 31.0345C94.7668 31.8599 94.9906 32.8294 94.9252 33.8017V44.8793C94.9887 45.9988 94.762 47.1153 94.2705 48.1035C93.8586 48.7809 93.2308 49.2717 92.5061 49.4828C91.658 49.7129 90.7858 49.823 89.9115 49.8103ZM89.9115 48.5086C90.4216 48.5196 90.9304 48.4469 91.4203 48.2931C91.847 48.1543 92.2092 47.8463 92.4343 47.431C92.7148 46.8251 92.8441 46.1506 92.8095 45.4741V33.8017C92.8479 33.1269 92.7242 32.4528 92.4502 31.8448C92.2227 31.4284 91.8576 31.1204 91.4283 30.9828C90.9433 30.8318 90.4402 30.7592 89.9354 30.7672C89.4252 30.7563 88.9165 30.829 88.4265 30.9828C87.9983 31.1184 87.6351 31.4272 87.4126 31.8448C87.132 32.4477 87.0027 33.1194 87.0373 33.7931V45.4741C86.9907 46.1468 87.1149 46.8204 87.3966 47.4224C87.6173 47.8383 87.9773 48.1469 88.4025 48.2845C88.9023 48.445 89.4221 48.5206 89.9434 48.5086H89.9115Z" fill="#835836"/>
<path d="M106.893 49.8448C106.248 49.8471 105.604 49.7894 104.969 49.6724C104.401 49.5834 103.857 49.366 103.372 49.0345C102.898 48.6999 102.528 48.2194 102.31 47.6552C102.033 46.8718 101.906 46.0362 101.935 45.1983L101.975 29.681H104.066V45.5948C104.025 46.2243 104.161 46.8525 104.458 47.3966C104.71 47.7896 105.079 48.0783 105.503 48.2155C105.959 48.363 106.433 48.4385 106.909 48.4397C107.382 48.4427 107.852 48.3701 108.306 48.2241C108.737 48.0938 109.115 47.8078 109.375 47.4138C109.675 46.8711 109.815 46.2425 109.775 45.6121L109.815 29.6983H111.874V45.2155C111.905 46.0515 111.775 46.8852 111.491 47.6638C111.273 48.2255 110.907 48.7053 110.437 49.0431C109.952 49.3737 109.408 49.591 108.841 49.681C108.197 49.796 107.545 49.8508 106.893 49.8448Z" fill="#835836"/>
<path d="M63.9407 0H62.3919V52H63.9407V0Z" fill="#835836"/>
<path d="M11.7771 38.157C11.6756 38.16 11.5745 38.1428 11.479 38.1062C10.1094 37.5153 8.87151 36.6286 7.84468 35.503C6.81784 34.3774 6.02464 33.0375 5.51583 31.5693C4.67638 29.1383 4.43157 26.5226 4.8041 23.9649C4.85096 23.7113 4.98741 23.4861 5.18571 23.3351C5.38401 23.184 5.62929 23.1184 5.8717 23.1516C6.11171 23.2034 6.32398 23.3501 6.46518 23.5617C6.60638 23.7733 6.66587 24.0339 6.63152 24.2902C6.32397 26.4962 6.53539 28.7484 7.24707 30.8475C7.65667 32.0471 8.2948 33.1452 9.12197 34.0737C9.94914 35.0023 10.9478 35.7415 12.0561 36.2458C12.2377 36.3438 12.3852 36.5004 12.4771 36.6929C12.5691 36.8854 12.6007 37.1038 12.5675 37.3165C12.5344 37.5293 12.438 37.7253 12.2925 37.8764C12.147 38.0275 11.9598 38.1258 11.7579 38.157H11.7771Z" fill="#835836"/>
<path d="M21.7154 50H21.4679C9.24502 50 0 39.6552 0 26.0086C0 12.3621 9.22906 2.04311 21.4679 2.02587C24.9725 1.91703 28.4584 2.61343 31.6949 4.06897C36.4053 6.22414 42.2573 11.0345 43.7901 21.8103H56.8992C57.2842 21.8 57.6672 21.8725 58.026 22.0234C58.3848 22.1743 58.7123 22.4007 58.9893 22.6895C59.2664 22.9782 59.4876 23.3236 59.64 23.7054C59.7924 24.0873 59.873 24.498 59.8771 24.9138V27.9569C59.8688 28.3701 59.7852 28.7776 59.631 29.1559C59.4769 29.5342 59.2552 29.8761 58.9786 30.1619C58.7021 30.4477 58.3761 30.6718 58.0193 30.8216C57.6625 30.9713 57.2819 31.0436 56.8992 31.0345H44.1254C41.8501 41.0259 35.9263 45.6897 31.3357 47.7759C28.2898 49.1734 25.0242 49.9283 21.7154 50ZM22.1705 4.25C21.7953 4.25 21.5797 4.25 21.5717 4.25H21.4999C10.4266 4.25862 2.06776 13.6121 2.06776 26.0086C2.06776 38.4052 10.4266 47.75 21.4999 47.75C24.6276 47.7223 27.7189 47.0219 30.5932 45.6897C36.8124 42.7931 40.7164 37.4138 42.3131 29.7069L42.4888 28.8448H56.8992C57.1211 28.8543 57.3374 28.7692 57.5017 28.6079C57.666 28.4466 57.765 28.2221 57.7774 27.9828V24.9138C57.7723 24.7949 57.7455 24.6782 57.6986 24.5705C57.6516 24.4628 57.5855 24.3661 57.5039 24.2861C57.4223 24.206 57.3269 24.1441 57.2232 24.1039C57.1194 24.0636 57.0093 24.0459 56.8992 24.0517H41.9698L41.8581 23.069C40.908 14.75 37.2436 9.06897 30.9525 6.17242C28.1686 4.92064 25.186 4.26481 22.1705 4.24138V4.25Z" fill="#835836"/>
<path d="M21.8192 19.6983C20.2943 20.8793 20.438 20.681 20.2225 20.8966C15.8874 25 14.7298 28.9655 14.6819 29.1293V29.1897C14.1438 31.1214 13.9408 33.1438 14.0831 35.1552C11.8186 33.9112 10.0692 31.7945 9.18116 29.2241C9.18116 29.1724 7.47266 24.181 9.18116 19.7414C9.31688 19.3879 11.3048 13.5431 15.7517 12.8448C17.1568 12.6035 20.949 13.3535 23.0647 18.7586C23.1525 18.8966 21.8192 19.6983 21.8192 19.6983Z" fill="#B68B6A"/>
<path d="M38.3213 27.2069C37.6638 29.5877 36.5207 31.7793 34.9762 33.6207C34.7755 33.8568 34.6594 34.1625 34.6489 34.4828C34.1619 34.5375 33.7104 34.7828 33.3795 35.1724C30.9809 37.4644 27.993 38.9137 24.8131 39.3276C24.8131 39.3276 20.5339 39.75 18.4262 37.3879C16.9811 35.7586 16.7576 33.0776 17.7396 29.4397C18.9274 26.6177 20.7464 24.1589 23.0327 22.2845L23.1046 22.2155C24.6844 20.9055 26.497 19.9606 28.4296 19.4397C29.1083 19.2241 35.1359 17.4914 37.7306 22.1983C38.1408 22.9452 38.4049 23.775 38.5065 24.6365C38.6081 25.498 38.5451 26.3728 38.3213 27.2069Z" fill="#B68B6A"/>
<path d="M22.3541 38.0086C22.1396 38.0058 21.9312 37.9313 21.7575 37.7953C21.5838 37.6593 21.4534 37.4685 21.3843 37.2493C21.3151 37.03 21.3106 36.793 21.3713 36.5708C21.4321 36.3486 21.5551 36.1522 21.7234 36.0086C23.8951 34.2976 25.4408 31.8168 26.0904 29C26.8608 25.5352 28.7992 22.5048 31.5273 20.5C31.6379 20.4145 31.763 20.3534 31.8955 20.3202C32.028 20.2869 32.1652 20.2821 32.2994 20.3062C32.4336 20.3302 32.5621 20.3825 32.6775 20.4601C32.793 20.5378 32.8932 20.6392 32.9723 20.7586C33.0515 20.8781 33.1081 21.0132 33.1389 21.1562C33.1697 21.2993 33.1741 21.4475 33.1518 21.5924C33.1296 21.7373 33.0811 21.876 33.0092 22.0007C32.9374 22.1253 32.8434 22.2335 32.7328 22.319C30.4348 23.9998 28.794 26.5392 28.1263 29.4483C27.3871 32.7906 25.5701 35.7396 23.0008 37.7673C22.8173 37.9256 22.589 38.0108 22.3541 38.0086Z" fill="#835836"/>
<path d="M38.2415 21.1466C35.567 15.9224 29.8667 16.2155 26.9287 17.2414C26.306 17.4483 25.7392 17.681 25.2202 17.9138C25.2461 17.6993 25.2157 17.4812 25.1324 17.2845C21.7713 9.59483 15.6 10.1897 15.3365 10.2155H15.2806C9.62824 11.1552 7.29703 17.1121 7.16131 17.319C7.05544 17.591 7.054 17.8974 7.15731 18.1706C7.26061 18.4438 7.46021 18.6615 7.71218 18.7759C7.96414 18.8902 8.24785 18.8917 8.50088 18.7802C8.75391 18.6686 8.95554 18.4531 9.06141 18.181C9.06141 18.181 11.0972 13.1897 15.5601 12.4224C15.9832 12.4224 20.6137 12.1638 23.2563 18.2241C23.3445 18.4175 23.4797 18.5814 23.6475 18.6983C22.7347 19.1971 21.8865 19.8231 21.1246 20.5603C18.6808 22.7421 16.7884 25.5566 15.6239 28.7414V28.7931C14.5062 33.2328 14.8256 36.6466 16.6858 38.931C18.7136 41.5172 21.9629 41.8362 23.6075 41.8362C23.9515 41.8402 24.2953 41.8229 24.6374 41.7845C27.3337 41.4485 29.8989 40.3448 32.0702 38.5862C32.2814 38.4069 32.4199 38.1461 32.4567 37.8588C32.4935 37.5714 32.4257 37.2798 32.2675 37.0453C32.1093 36.8109 31.873 36.6518 31.6084 36.6015C31.3438 36.5513 31.0715 36.6138 30.8487 36.7759C28.9719 38.3066 26.7503 39.268 24.4139 39.5604C24.4139 39.5604 20.3023 40.0431 18.2505 37.4741C16.9093 35.75 16.6937 33.0776 17.6119 29.4052C18.6826 26.6155 20.368 24.1504 22.5218 22.2241L22.5697 22.1724C24.0278 20.8594 25.7291 19.8983 27.5594 19.3535C27.8229 19.2672 33.9463 17.2672 36.4452 22.2328C37.2444 23.8134 37.4502 25.6653 37.02 27.4052C36.4166 29.758 35.3551 31.9446 33.9064 33.819C33.7646 34.0503 33.7074 34.3302 33.7457 34.6046C33.784 34.8789 33.9152 35.1281 34.1138 35.304C34.3125 35.4799 34.5645 35.57 34.8212 35.5569C35.0778 35.5437 35.3208 35.4282 35.5031 35.2328C37.1378 33.111 38.3328 30.636 39.0079 27.9741C39.5788 25.6768 39.3042 23.2301 38.2415 21.1466Z" fill="#835836"/>
<path d="M15.6798 24.1379C15.4772 24.137 15.2792 24.072 15.1104 23.9509C14.9416 23.8299 14.8093 23.6582 14.7298 23.4569C13.6708 20.8331 13.3541 17.9297 13.8196 15.1121C13.8673 14.8206 14.0202 14.5614 14.2448 14.3917C14.4694 14.2219 14.7472 14.1555 15.0172 14.2069C15.2871 14.2583 15.5271 14.4235 15.6843 14.666C15.8415 14.9085 15.9031 15.2085 15.8555 15.5C15.4744 17.8927 15.752 20.3536 16.6538 22.5776C16.7078 22.7122 16.7366 22.8571 16.7385 23.0038C16.7404 23.1505 16.7154 23.2962 16.6649 23.4324C16.6144 23.5686 16.5395 23.6927 16.4444 23.7975C16.3494 23.9023 16.236 23.9858 16.1109 24.0431C15.9766 24.1123 15.8285 24.1449 15.6798 24.1379Z" fill="#835836"/>
<path d="M63.9407 0H62.3919V52H63.9407V0Z" fill="#835836"/>
<path d="M11.7771 38.157C11.6756 38.16 11.5745 38.1428 11.479 38.1062C10.1094 37.5153 8.87151 36.6286 7.84468 35.503C6.81784 34.3774 6.02464 33.0375 5.51583 31.5693C4.67638 29.1383 4.43157 26.5226 4.8041 23.9649C4.85096 23.7113 4.98741 23.4861 5.18571 23.3351C5.38401 23.184 5.62929 23.1184 5.8717 23.1516C6.11171 23.2034 6.32398 23.3501 6.46518 23.5617C6.60638 23.7733 6.66587 24.0339 6.63152 24.2902C6.32397 26.4962 6.53539 28.7484 7.24707 30.8475C7.65667 32.0471 8.2948 33.1452 9.12197 34.0737C9.94914 35.0023 10.9478 35.7415 12.0561 36.2458C12.2377 36.3438 12.3852 36.5004 12.4771 36.6929C12.5691 36.8854 12.6007 37.1038 12.5675 37.3165C12.5344 37.5293 12.438 37.7253 12.2925 37.8764C12.147 38.0275 11.9598 38.1258 11.7579 38.157H11.7771Z" fill="#835836"/>
</svg>
